<?xml version="1.0" encoding="utf-8"?>
<!-- Generator: Adobe Illustrator 28.2.0, SVG Export Plug-In . SVG Version: 6.00 Build 0)  -->
<svg version="1.1" id="Layer_1" xmlns="http://www.w3.org/2000/svg" xmlns:xlink="http://www.w3.org/1999/xlink" x="0px" y="0px"
	 viewBox="0 0 24.21 22.1" style="enable-background:new 0 0 24.21 22.1;" xml:space="preserve">
<style type="text/css">
	.st0{fill:#45C4D8;}
	.st1{fill:#233D7A;}
	.st2{fill:#2E3192;}
</style>
<g>
	<g>
		<path class="st0" d="M2.22,6.77c0.29-0.87,1.05-1.5,2.33-2.11c3.29-1.55,6.99-1.48,7.21-1.48c2.1,0.06,8.72,0.24,9.92,3.46
			c0.31,0.82,0.29,1.91,0.27,2.51c-0.01,0.39-0.07,2.97-0.88,3.17c-0.7,0.17-1.22-1.72-2.2-1.69c-1.35,0.05-1.77,3.71-3.01,3.75
			c-1.08,0.03-1.5-2.75-2.6-2.76c-1.42-0.01-2.12,4.65-3.33,4.6c-1.16-0.05-1.52-4.38-3.02-4.48c-0.85-0.06-1.36,1.31-2.07,1.1
			c-0.89-0.26-0.79-2.63-1.41-2.69c-0.4-0.03-0.65,0.92-0.96,0.85c-0.31-0.07-0.33-1.13-0.35-2.34C2.12,7.64,2.11,7.12,2.22,6.77z"
			/>
		<path class="st1" d="M2.27,13.69c-0.01,0.33-0.02,0.85-0.02,1.49c0,0.72,0,1.09,0.01,1.22c0.15,1.72,4.07,2.93,4.54,3.08
			c0.43,0.13,2.1,0.62,4.98,0.66c4.39,0.07,6.77-0.97,7.43-1.27c0.6-0.28,2.66-1.29,2.75-2.57c0-0.06,0-0.3,0-0.77
			c0-0.79,0-1.43-0.01-1.85c0.31,0.19,2.29,1.47,2.24,3.24c-0.05,1.77-2.09,2.86-3.44,3.58c-0.65,0.35-3.2,1.64-8.65,1.58
			c-2.86-0.03-7.34-0.13-10.57-2.81C0.4,18.33,0.03,17.57,0,16.86C-0.07,15.07,2.05,13.82,2.27,13.69z"/>
	</g>
	<g>
		<g>
			<ellipse class="st2" cx="7.27" cy="6.76" rx="0.74" ry="0.46"/>
			<rect x="6.53" y="2.5" class="st2" width="1.49" height="4.26"/>
			<ellipse class="st2" cx="7.27" cy="2.5" rx="0.74" ry="0.46"/>
			<path class="st0" d="M7.27,2.98c-0.42,0-0.75-0.21-0.75-0.48s0.34-0.48,0.75-0.48c0.42,0,0.75,0.21,0.75,0.48
				S7.68,2.98,7.27,2.98z M7.27,2.05c-0.4,0-0.73,0.2-0.73,0.45s0.33,0.45,0.73,0.45C7.67,2.95,8,2.75,8,2.5S7.67,2.05,7.27,2.05z"
				/>
		</g>
		<g>
			<path class="st0" d="M7.32,1.26c0,0-0.04,0.32-0.21,0.54C6.93,2.01,7.32,2.22,7.32,2.22s0.25-0.2,0.13-0.42S7.32,1.26,7.32,1.26z
				"/>
			<rect x="7.27" y="1.99" class="st0" width="0.05" height="0.52"/>
		</g>
	</g>
	<g>
		<g>
			<ellipse class="st2" cx="11.7" cy="6.28" rx="0.85" ry="0.53"/>
			<rect x="10.85" y="1.43" class="st2" width="1.7" height="4.86"/>
			<ellipse class="st2" cx="11.7" cy="1.43" rx="0.85" ry="0.53"/>
			<path class="st0" d="M11.7,1.97c-0.47,0-0.86-0.24-0.86-0.54s0.39-0.54,0.86-0.54c0.47,0,0.86,0.24,0.86,0.54
				S12.17,1.97,11.7,1.97z M11.7,0.92c-0.46,0-0.84,0.23-0.84,0.51s0.38,0.51,0.84,0.51c0.46,0,0.84-0.23,0.84-0.51
				S12.16,0.92,11.7,0.92z"/>
		</g>
		<g>
			<path class="st0" d="M11.75,0.01c0,0-0.04,0.37-0.24,0.61s0.24,0.49,0.24,0.49s0.29-0.23,0.14-0.48
				C11.75,0.39,11.75,0.01,11.75,0.01z"/>
			<rect x="11.7" y="0.84" class="st0" width="0.06" height="0.6"/>
		</g>
	</g>
	<g>
		<g>
			<ellipse class="st2" cx="16.3" cy="6.76" rx="0.74" ry="0.46"/>
			<rect x="15.56" y="2.5" class="st2" width="1.49" height="4.26"/>
			<ellipse class="st2" cx="16.3" cy="2.5" rx="0.74" ry="0.46"/>
			<path class="st0" d="M16.3,2.98c-0.42,0-0.75-0.21-0.75-0.48s0.34-0.48,0.75-0.48c0.42,0,0.75,0.21,0.75,0.48
				S16.72,2.98,16.3,2.98z M16.3,2.05c-0.4,0-0.73,0.2-0.73,0.45s0.33,0.45,0.73,0.45c0.4,0,0.73-0.2,0.73-0.45S16.7,2.05,16.3,2.05
				z"/>
		</g>
		<g>
			<path class="st0" d="M16.35,1.26c0,0-0.04,0.32-0.21,0.54s0.21,0.43,0.21,0.43s0.25-0.2,0.13-0.42
				C16.35,1.59,16.35,1.26,16.35,1.26z"/>
			<rect x="16.3" y="1.99" class="st0" width="0.05" height="0.52"/>
		</g>
	</g>
</g>
</svg>
