<?xml version="1.0" encoding="UTF-8"?>
<svg id="Layer_1" data-name="Layer 1" xmlns="http://www.w3.org/2000/svg" viewBox="0 0 182.06 32">
  <defs>
    <style>
      .cls-1 {
        fill: #45c4d8;
      }

      .cls-1, .cls-2, .cls-3, .cls-4 {
        stroke-width: 0px;
      }

      .cls-2 {
        fill: #2a7faa;
      }

      .cls-3 {
        fill: #233d7a;
      }

      .cls-4 {
        fill: #2e3192;
      }
    </style>
  </defs>
  <path class="cls-1" d="M83.15,32L75.23,0h3.77l3.54,15.18c1.05,4.47,2.27,10.05,2.68,13.11h.1c.41-2.77,1.95-8.6,3.04-13.09l3.63-15.21h3.64l-8.27,32h-4.22Z"/>
  <path class="cls-1" d="M102.56,0v32h-3.51V0h3.51Z"/>
  <path class="cls-1" d="M108.94,0h7.11c7.38,0,10.69,5.16,10.69,15.16,0,10.86-3,16.84-11.21,16.84h-6.6V0ZM112.47,29h2.93c5.85,0,7.71-4.65,7.71-13.72,0-8.5-2.18-12.25-7.66-12.25h-2.98v25.96Z"/>
  <path class="cls-1" d="M66.22,0h3.51l7.73,32h-3.51L66.22,0Z"/>
  <path class="cls-1" d="M63.95,5.1l-6.5,26.9h3.51l4.74-19.63-1.75-7.26Z"/>
  <path class="cls-3" d="M0,0h7.11c7.38,0,10.69,5.16,10.69,15.16,0,10.86-3,16.84-11.21,16.84H0V0ZM3.53,29h2.93c5.85,0,7.71-4.65,7.71-13.72,0-8.5-2.18-12.25-7.66-12.25h-2.98v25.96Z"/>
  <path class="cls-3" d="M25.93,21.85l-2.33,10.15h-3.51L27.83,0h4.55l7.96,32h-3.73l-2.36-10.15h-8.31ZM33.53,18.73c-1.86-7.86-3.06-12.86-3.48-15.41h-.11c-.44,2.78-1.74,8.54-3.32,15.41h6.91Z"/>
  <path class="cls-3" d="M45.4,3.14h-7.14V0h17.78v3.14h-7.13v28.86h-3.51V3.14Z"/>
  <path class="cls-3" d="M65.18,0h-3.51l-7.73,32h3.51L65.18,0Z"/>
  <path class="cls-3" d="M67.46,5.1l-1.75,7.27,4.74,19.63h3.51s-4.31-17.86-6.5-26.9Z"/>
  <path class="cls-2" d="M65.7,12.37l1.75-7.27c-.74-3.06-1.23-5.1-1.23-5.1h-1.05s-.5,2.05-1.23,5.1l1.75,7.27Z"/>
  <g>
    <path class="cls-3" d="M131.56,31.71c-.29.14-.86.29-1.6.29-1.71,0-2.99-1.08-2.99-3.06s1.28-3.18,3.16-3.18c.75,0,1.23.16,1.44.27l-.19.64c-.3-.14-.72-.25-1.22-.25-1.42,0-2.36.91-2.36,2.5,0,1.48.85,2.43,2.33,2.43.48,0,.96-.1,1.27-.25l.16.62Z"/>
    <path class="cls-3" d="M133.56,30.01l-.63,1.9h-.81l2.06-6.05h.94l2.07,6.05h-.83l-.65-1.9h-2.15ZM135.54,29.39l-.59-1.74c-.13-.39-.22-.75-.31-1.1h-.02c-.09.36-.19.73-.31,1.1l-.59,1.75h1.82Z"/>
    <path class="cls-3" d="M138.07,25.86h.78v2.92h.03c.16-.23.32-.45.48-.65l1.85-2.27h.97l-2.19,2.57,2.36,3.48h-.93l-1.99-2.97-.57.66v2.31h-.78v-6.05Z"/>
    <path class="cls-3" d="M146.08,29.07h-2.35v2.18h2.62v.66h-3.4v-6.05h3.27v.65h-2.49v1.91h2.35v.65Z"/>
    <path class="cls-1" d="M150.05,26.52h-1.84v-.66h4.48v.66h-1.85v5.39h-.79v-5.39Z"/>
    <path class="cls-1" d="M153.37,25.94c.4-.08.96-.13,1.5-.13.83,0,1.37.15,1.75.49.31.27.48.68.48,1.15,0,.8-.5,1.33-1.14,1.54v.03c.47.16.75.59.89,1.22.2.84.34,1.43.47,1.66h-.81c-.1-.17-.23-.69-.4-1.45-.18-.84-.5-1.15-1.21-1.18h-.74v2.62h-.78v-5.97ZM154.15,28.7h.8c.84,0,1.37-.46,1.37-1.15,0-.78-.57-1.12-1.39-1.13-.38,0-.65.04-.77.07v2.21Z"/>
    <path class="cls-1" d="M159.23,30.01l-.63,1.9h-.81l2.06-6.05h.94l2.07,6.05h-.83l-.65-1.9h-2.15ZM161.21,29.39l-.59-1.74c-.13-.39-.22-.75-.31-1.1h-.02c-.09.36-.19.73-.31,1.1l-.59,1.75h1.82Z"/>
    <path class="cls-1" d="M167.84,31.71c-.29.14-.86.29-1.6.29-1.71,0-2.99-1.08-2.99-3.06s1.28-3.18,3.16-3.18c.75,0,1.23.16,1.44.27l-.19.64c-.3-.14-.72-.25-1.22-.25-1.42,0-2.36.91-2.36,2.5,0,1.48.85,2.43,2.33,2.43.47,0,.96-.1,1.27-.25l.16.62Z"/>
    <path class="cls-1" d="M168.82,25.86h.78v2.92h.03c.16-.23.32-.45.48-.65l1.85-2.27h.97l-2.19,2.57,2.36,3.48h-.92l-1.99-2.97-.57.66v2.31h-.78v-6.05Z"/>
    <path class="cls-1" d="M176.83,29.07h-2.35v2.18h2.62v.66h-3.4v-6.05h3.27v.65h-2.49v1.91h2.35v.65Z"/>
    <path class="cls-1" d="M178.12,25.94c.39-.08.96-.13,1.5-.13.83,0,1.37.15,1.75.49.3.27.48.68.48,1.15,0,.8-.5,1.33-1.14,1.54v.03c.47.16.75.59.89,1.22.2.84.34,1.43.47,1.66h-.81c-.1-.17-.23-.69-.4-1.45-.18-.84-.5-1.15-1.21-1.18h-.74v2.62h-.78v-5.97ZM178.9,28.7h.8c.84,0,1.37-.46,1.37-1.15,0-.78-.57-1.12-1.39-1.13-.38,0-.65.04-.77.07v2.21Z"/>
  </g>
  <g>
    <g>
      <path class="cls-1" d="M147.91,8.64c.29-.87,1.05-1.5,2.33-2.11,3.29-1.55,6.99-1.48,7.21-1.48,2.1.06,8.72.24,9.92,3.46.31.82.29,1.91.27,2.51,0,.39-.07,2.97-.88,3.17-.7.17-1.22-1.72-2.2-1.69-1.35.05-1.77,3.71-3.01,3.75-1.08.03-1.5-2.75-2.6-2.76-1.42-.01-2.12,4.65-3.33,4.6-1.16-.05-1.52-4.38-3.02-4.48-.85-.06-1.36,1.31-2.07,1.1-.89-.26-.79-2.63-1.41-2.69-.4-.03-.65.92-.96.85-.31-.07-.33-1.13-.35-2.34-.01-1.04-.02-1.56.09-1.9Z"/>
      <path class="cls-3" d="M147.96,15.56c0,.33-.02.85-.02,1.49,0,.72,0,1.09.01,1.22.15,1.72,4.07,2.93,4.54,3.08.43.13,2.1.62,4.98.66,4.39.07,6.77-.97,7.43-1.27.6-.28,2.66-1.29,2.75-2.57,0-.06,0-.3,0-.77,0-.79,0-1.43,0-1.85.31.19,2.29,1.47,2.24,3.24-.05,1.77-2.09,2.86-3.44,3.58-.65.35-3.2,1.64-8.65,1.58-2.86-.03-7.34-.13-10.57-2.81-1.15-.95-1.51-1.71-1.54-2.41-.07-1.79,2.04-3.04,2.27-3.18Z"/>
    </g>
    <g>
      <g>
        <ellipse class="cls-4" cx="152.95" cy="8.63" rx=".74" ry=".46"/>
        <rect class="cls-4" x="152.21" y="4.37" width="1.49" height="4.26"/>
        <ellipse class="cls-4" cx="152.95" cy="4.37" rx=".74" ry=".46"/>
        <path class="cls-1" d="M152.95,4.85c-.42,0-.75-.21-.75-.48s.34-.48.75-.48.75.21.75.48-.34.48-.75.48ZM152.95,3.93c-.4,0-.73.2-.73.45s.33.45.73.45.73-.2.73-.45-.33-.45-.73-.45Z"/>
      </g>
      <g>
        <path class="cls-1" d="M153,3.13s-.04.32-.21.54.21.43.21.43c0,0,.25-.2.13-.42s-.13-.54-.13-.54Z"/>
        <rect class="cls-1" x="152.95" y="3.86" width=".05" height=".52"/>
      </g>
    </g>
    <g>
      <g>
        <ellipse class="cls-4" cx="157.38" cy="8.16" rx=".85" ry=".53"/>
        <rect class="cls-4" x="156.54" y="3.3" width="1.7" height="4.86"/>
        <ellipse class="cls-4" cx="157.38" cy="3.3" rx=".85" ry=".53"/>
        <path class="cls-1" d="M157.38,3.84c-.47,0-.86-.24-.86-.54s.39-.54.86-.54.86.24.86.54-.39.54-.86.54ZM157.38,2.79c-.46,0-.84.23-.84.51s.38.51.84.51.84-.23.84-.51-.38-.51-.84-.51Z"/>
      </g>
      <g>
        <path class="cls-1" d="M157.44,1.88s-.04.37-.24.61.24.49.24.49c0,0,.29-.23.14-.48s-.14-.62-.14-.62Z"/>
        <rect class="cls-1" x="157.38" y="2.71" width=".06" height=".6"/>
      </g>
    </g>
    <g>
      <g>
        <ellipse class="cls-4" cx="161.98" cy="8.63" rx=".74" ry=".46"/>
        <rect class="cls-4" x="161.24" y="4.37" width="1.49" height="4.26"/>
        <ellipse class="cls-4" cx="161.98" cy="4.37" rx=".74" ry=".46"/>
        <path class="cls-1" d="M161.99,4.85c-.42,0-.75-.21-.75-.48s.34-.48.75-.48.75.21.75.48-.34.48-.75.48ZM161.99,3.93c-.4,0-.73.2-.73.45s.33.45.73.45.73-.2.73-.45-.33-.45-.73-.45Z"/>
      </g>
      <g>
        <path class="cls-1" d="M162.03,3.13s-.04.32-.21.54.21.43.21.43c0,0,.25-.2.13-.42s-.13-.54-.13-.54Z"/>
        <rect class="cls-1" x="161.98" y="3.86" width=".05" height=".52"/>
      </g>
    </g>
  </g>
</svg>